<svg width="25" height="20" viewBox="0 0 25 20" fill="none" xmlns="http://www.w3.org/2000/svg">
<path d="M8.75 15.5C8.41667 16.8333 7.91667 18 7.25 19C4.58333 18 2.58333 16.6667 1.25 15C1.25 10.3333 2.25 6.33333 4.25 3C5.91667 2 7.58333 1.33333 9.25 1L10.25 3C11.5833 2.66667 12.9167 2.66667 14.25 3L15.25 1C16.9167 1.33333 18.5833 2 20.25 3C22.25 6.33333 23.25 10.3333 23.25 15C21.9167 16.6667 19.9167 18 17.25 19C16.5833 18 16.0833 16.8333 15.75 15.5M7.25 15C10.5833 16.3333 13.9167 16.3333 17.25 15" stroke="#121212" stroke-width="2" stroke-linecap="round" stroke-linejoin="round"/>
<path d="M8.25 11C8.80228 11 9.25 10.5523 9.25 10C9.25 9.44772 8.80228 9 8.25 9C7.69772 9 7.25 9.44772 7.25 10C7.25 10.5523 7.69772 11 8.25 11Z" stroke="#121212" stroke-width="2" stroke-linecap="round" stroke-linejoin="round"/>
<path d="M16.25 11C16.8023 11 17.25 10.5523 17.25 10C17.25 9.44772 16.8023 9 16.25 9C15.6977 9 15.25 9.44772 15.25 10C15.25 10.5523 15.6977 11 16.25 11Z" stroke="#121212" stroke-width="2" stroke-linecap="round" stroke-linejoin="round"/>
</svg>
