<svg width="22" height="20" viewBox="0 0 22 20" fill="none" xmlns="http://www.w3.org/2000/svg">
<path d="M11.2347 13.4083L14.4767 17.0943C15.6767 18.4593 16.2777 19.1423 16.9067 18.9753C17.5347 18.8093 17.7507 17.9113 18.1817 16.1143L20.5717 6.14628C21.2367 3.37828 21.5687 1.99528 20.8307 1.31228C20.0927 0.629283 18.8137 1.13728 16.2557 2.15228L4.38974 6.86528C2.34374 7.67828 1.32074 8.08428 1.25574 8.78228C1.24809 8.85341 1.24809 8.92516 1.25574 8.99628C1.31874 9.69528 2.33974 10.1043 4.38374 10.9233C5.30874 11.2943 5.77174 11.4803 6.10374 11.8353C6.14107 11.8753 6.17707 11.9166 6.21174 11.9593C6.51774 12.3393 6.64774 12.8393 6.90874 13.8353L7.39774 15.7023C7.65074 16.6723 7.77774 17.1583 8.11074 17.2243C8.44374 17.2903 8.73274 16.8883 9.31174 16.0833L11.2347 13.4083ZM11.2347 13.4083L10.9177 13.0783C10.5557 12.7003 10.3747 12.5123 10.3747 12.2783C10.3747 12.0443 10.5547 11.8553 10.9177 11.4783L14.4907 7.75428" stroke="#121212" stroke-width="1.5" stroke-linecap="round" stroke-linejoin="round"/>
</svg>
